<?xml version="1.0" encoding="utf-8"?>
<!-- Generator: Adobe Illustrator 22.1.0, SVG Export Plug-In . SVG Version: 6.00 Build 0)  -->
<svg version="1.1" id="Calque_1" xmlns="http://www.w3.org/2000/svg" xmlns:xlink="http://www.w3.org/1999/xlink" x="0px" y="0px"
	 viewBox="0 0 141.7 141.7" style="enable-background:new 0 0 141.7 141.7;" xml:space="preserve">
<style type="text/css">
	.st0{fill:#545255;}
</style>
<g>
	<path class="st0" d="M70.9,12.8c18.9,0,21.2,0.1,28.6,0.4c6.9,0.3,10.7,1.5,13.2,2.4c3.3,1.3,5.7,2.8,8.1,5.3
		c2.5,2.5,4,4.8,5.3,8.1c1,2.5,2.1,6.2,2.4,13.2c0.3,7.5,0.4,9.7,0.4,28.6s-0.1,21.2-0.4,28.6c-0.3,6.9-1.5,10.7-2.4,13.2
		c-1.3,3.3-2.8,5.7-5.3,8.1c-2.5,2.5-4.8,4-8.1,5.3c-2.5,1-6.2,2.1-13.2,2.4c-7.5,0.3-9.7,0.4-28.6,0.4s-21.2-0.1-28.6-0.4
		c-6.9-0.3-10.7-1.5-13.2-2.4c-3.3-1.3-5.7-2.8-8.1-5.3c-2.5-2.5-4-4.8-5.3-8.1c-1-2.5-2.1-6.2-2.4-13.2c-0.3-7.5-0.4-9.7-0.4-28.6
		s0.1-21.2,0.4-28.6c0.3-6.9,1.5-10.7,2.4-13.2c1.3-3.3,2.8-5.7,5.3-8.1c2.5-2.5,4.8-4,8.1-5.3c2.5-1,6.2-2.1,13.2-2.4
		C49.7,12.8,51.9,12.8,70.9,12.8 M70.9,0C51.6,0,49.2,0.1,41.6,0.4C34.1,0.8,29,2,24.4,3.7c-4.7,1.8-8.6,4.2-12.6,8.2
		C8,15.8,5.5,19.8,3.7,24.4C2,29,0.8,34.1,0.4,41.6C0.1,49.2,0,51.6,0,70.9c0,19.2,0.1,21.7,0.4,29.2s1.5,12.7,3.3,17.2
		c1.8,4.7,4.2,8.6,8.2,12.6c3.9,3.9,7.9,6.4,12.6,8.2c4.5,1.8,9.7,2.9,17.2,3.3c7.6,0.3,10,0.4,29.2,0.4s21.7-0.1,29.2-0.4
		c7.5-0.3,12.7-1.5,17.2-3.3c4.7-1.8,8.6-4.2,12.6-8.2c3.9-3.9,6.4-7.9,8.2-12.6c1.8-4.5,2.9-9.7,3.3-17.2c0.3-7.6,0.4-10,0.4-29.2
		s-0.1-21.7-0.4-29.2c-0.3-7.5-1.5-12.7-3.3-17.2c-1.8-4.7-4.2-8.6-8.2-12.6C126,8,122,5.5,117.3,3.7c-4.5-1.8-9.7-2.9-17.2-3.3
		C92.5,0.1,90.1,0,70.9,0L70.9,0z"/>
	<path class="st0" d="M70.9,34.5c-20.1,0-36.4,16.3-36.4,36.4s16.3,36.4,36.4,36.4s36.4-16.3,36.4-36.4S91,34.5,70.9,34.5z
		 M70.9,94.5c-13,0-23.6-10.6-23.6-23.6s10.6-23.6,23.6-23.6s23.6,10.6,23.6,23.6S83.9,94.5,70.9,94.5z"/>
	<circle class="st0" cx="108.7" cy="33" r="8.5"/>
</g>
</svg>
